<?xml version="1.0" encoding="UTF-8"?>
<svg id="Layer_1" xmlns="http://www.w3.org/2000/svg" version="1.1" viewBox="160 100 662.9 108.3">
  <!-- Generator: Adobe Illustrator 29.3.1, SVG Export Plug-In . SVG Version: 2.1.0 Build 151)  -->
  <defs>
    <style>
      .st0 {
        fill: #fff;
      }
      .st1 {
        fill: #a8ff5c;
      }
    </style>
  </defs>
  <g>
    <path class="st0" d="M341.4,145.9c0-10.8-8.8-19.6-19.6-19.6h-47.2v50.8h10.2v-11.1h36.9c10.9,0,19.7-8.8,19.7-19.7v-.4h0ZM331.2,146.2c0,5.3-4.3,9.5-9.5,9.5h-36.9v-19.3h37c5.2,0,9.4,4.2,9.4,9.4v.4h0Z"/>
    <path class="st0" d="M367.1,126.6l-28.1,50.2h11.9l4.5-8h34.5s.6.3.6.3l.2.4,4.1,7.4h12l-28.2-50.2h-11.5s0,0,0,0ZM361.3,158.4l11.6-20.7,11.6,20.7h-23.2Z"/>
    <path class="st0" d="M475.1,154.1c-2.2-2.5-5.3-4.1-8.7-4.6l-41-5.9c-2-.3-3.5-1.8-3.5-3.6s1.8-3.6,4.1-3.6h38.2c1.1,0,2.2.4,3,1.1.4.3.7.8,1,1.5h10.3c-.2-3.4-1.7-6.5-4.3-8.9-2.7-2.6-6.2-4-10-4h-38.2c-7.9,0-14.3,6.2-14.3,13.9s1.3,6.6,3.5,9.1c2.2,2.5,5.3,4.1,8.7,4.6l41,5.9c2,.3,3.5,1.8,3.5,3.6,0,2-1.8,3.6-4.1,3.6h-38.2c-1.1,0-2.2-.4-3-1.2-.5-.4-.8-.9-1-1.5h-10.3c.2,3.4,1.7,6.5,4.2,8.9,2.7,2.6,6.3,4,10,4h38.2c7.9,0,14.3-6.2,14.3-13.8,0-3.4-1.3-6.6-3.5-9.1h0Z"/>
    <path class="st0" d="M552.9,154.1c-2.2-2.5-5.3-4.1-8.7-4.6l-41-5.9c-2-.3-3.5-1.8-3.5-3.6s1.8-3.6,4.1-3.6h38.2c1.1,0,2.2.4,3,1.1.3.3.7.8,1,1.5h10.3c-.2-3.4-1.7-6.5-4.3-8.9-2.7-2.6-6.2-4-10-4h-38.2c-7.9,0-14.3,6.2-14.3,13.9s1.3,6.6,3.5,9.1c2.2,2.5,5.3,4.1,8.7,4.6l41,5.9c2,.3,3.5,1.8,3.5,3.6,0,2-1.8,3.6-4.1,3.6h-38.2c-1.1,0-2.2-.4-3-1.2-.5-.4-.8-.9-1-1.5h-10.3c.2,3.4,1.7,6.5,4.2,8.9,2.7,2.6,6.3,4,10,4h38.2c7.9,0,14.3-6.2,14.3-13.8,0-3.4-1.3-6.6-3.5-9.1h0Z"/>
    <path class="st0" d="M589.7,126.6l-28.1,50.2h12l4.5-8h34.9s4.5,8,4.5,8h12l-28.2-50.2h-11.5ZM583.8,158.4l11.6-20.7,11.6,20.7h-23.2Z"/>
    <path class="st0" d="M665,156.8h21.4l-.7,1.4c-2.5,5.3-7.9,8.7-13.8,8.7h-15.9c-8.4,0-15.3-6.9-15.3-15.3s6.9-15.3,15.3-15.3h15.9c4.3,0,8.4,1.8,11.3,5l8-6.4c-4.8-5.6-11.8-8.8-19.3-8.8h-15.9c-6.8,0-13.2,2.6-18,7.5-4.8,4.8-7.5,11.2-7.5,18s2.6,13.2,7.5,18,11.2,7.5,18,7.5h15.9c4.9,0,9.7-1.4,13.7-4l1.5-1v4.9h10.2v-30.5s-32.4,0-32.4,0v10.2h0Z"/>
    <polygon class="st0" points="775.1 136.4 775.1 126.2 710.1 126.2 710.1 177.1 775.1 177.1 775.1 166.9 720.3 166.9 720.3 156.7 775.1 156.7 775.1 146.5 720.3 146.5 720.3 136.4 775.1 136.4"/>
  </g>
  <g>
    <rect class="st0" x="175.9" y="146.1" width="9" height="29.2"/>
    <polygon class="st0" points="223.1 137.1 223.1 135.5 223.1 128.1 175.9 128.1 175.9 137.1 214.1 137.1 214.1 146.1 193.8 146.1 193.8 155.1 214.1 155.1 222.5 155.1 223.1 155.1 223.1 137.1"/>
    <polygon class="st0" points="166.9 119.1 184.9 119.1 184.9 110.1 166.9 110.1 157.9 110.1 157.9 119.1 157.9 184.3 157.9 193.3 166.9 193.3 203.9 193.3 203.9 184.3 166.9 184.3 166.9 119.1"/>
    <rect class="st0" x="193.8" y="166.3" width="10.1" height="9"/>
    <rect class="st1" x="212.9" y="166.3" width="10.1" height="9"/>
    <polygon class="st0" points="233.6 110.1 232.1 110.1 193.9 110.1 193.9 119.1 232.1 119.1 232.1 184.3 212.9 184.3 212.9 193.3 232.1 193.3 241.1 193.3 241.1 184.3 241.1 110.1 233.6 110.1"/>
  </g>
</svg>