<svg width="157" height="21" viewBox="0 0 157 21" fill="none" xmlns="http://www.w3.org/2000/svg">
    <g clip-path="url(#clip0_2272_1191)">
        <path d="M46.6582 9.65668C46.6582 6.92523 44.418 4.70312 41.6646 4.70312H29.6629V17.5297H32.2578V14.7279H41.6394C44.4068 14.7279 46.6582 12.4944 46.6582 9.74906V9.65668ZM44.0636 9.74906C44.0636 11.0752 42.9762 12.1539 41.6397 12.1539H32.258V7.27708H41.6649C42.9876 7.27708 44.0639 8.34447 44.0639 9.65668V9.74906H44.0636Z" fill="white"/>
        <path d="M53.2163 4.79584L46.07 17.472H49.1099L50.2543 15.4422L59.0276 15.4533L59.1747 15.5248L59.2273 15.6156L60.2763 17.472H63.318L56.1491 4.79004L53.2163 4.79584ZM51.7381 12.8102L54.6859 7.58232L57.6418 12.8115L51.7381 12.8102Z" fill="white"/>
        <path d="M80.6885 11.739C80.1209 11.1168 79.3383 10.7072 78.485 10.5853L68.0574 9.10016C67.5559 9.02898 67.1778 8.63827 67.1778 8.19153C67.1778 7.68421 67.6467 7.27154 68.223 7.27154L77.9532 7.26926C78.2448 7.26926 78.516 7.373 78.7165 7.56154C78.8056 7.64584 78.9058 7.77078 78.9597 7.93711H81.5846C81.522 7.08678 81.1435 6.29829 80.5028 5.69531C79.8184 5.05044 78.9129 4.69531 77.9532 4.69531L68.2222 4.69758C66.2156 4.69784 64.5829 6.26523 64.5829 8.19127C64.5829 9.03984 64.9033 9.85811 65.4849 10.4949C66.053 11.1171 66.8356 11.5267 67.6882 11.6484L78.1166 13.1335C78.618 13.2052 78.9961 13.5959 78.9961 14.0429C78.9951 14.5504 78.5259 14.9631 77.9504 14.9631H68.2235C67.9319 14.9631 67.6605 14.8594 67.46 14.6708C67.3435 14.5603 67.2618 14.4331 67.2173 14.2955H64.5924C64.6549 15.1453 65.0333 15.9338 65.6732 16.5376C66.3581 17.1824 67.2638 17.5376 68.2235 17.5376H77.9504C79.9576 17.5373 81.5905 15.9699 81.5905 14.0436C81.5912 13.1956 81.2709 12.377 80.6885 11.739Z" fill="white"/>
        <path d="M100.48 11.7392C99.9126 11.1171 99.13 10.7074 98.2767 10.5855L87.8491 9.10041C87.3476 9.02923 86.9695 8.63852 86.9695 8.19178C86.9695 7.68446 87.4385 7.27179 88.0147 7.27179L97.7449 7.26952C98.0365 7.26952 98.3077 7.37325 98.5082 7.56179C98.5973 7.64584 98.6975 7.77078 98.7514 7.93736H101.376C101.314 7.08678 100.935 6.29854 100.295 5.69556C99.6101 5.05044 98.7046 4.69531 97.7449 4.69531L88.014 4.69758C86.0073 4.69784 84.3747 6.26523 84.3747 8.19127C84.3747 9.03984 84.695 9.85811 85.2766 10.4949C85.8447 11.1171 86.6276 11.5267 87.4802 11.6484L97.9085 13.1335C98.4098 13.2049 98.7878 13.5959 98.7878 14.0429C98.7871 14.5504 98.3179 14.9631 97.7421 14.9631H88.0152C87.7237 14.9631 87.4522 14.8594 87.2517 14.6708C87.1352 14.5603 87.0535 14.4331 87.009 14.2955H84.3841C84.4467 15.1453 84.825 15.9338 85.4649 16.5376C86.1498 17.1824 87.0555 17.5376 88.0152 17.5376H97.7421C99.7493 17.5373 101.382 15.9699 101.382 14.0436C101.383 13.1956 101.063 12.3773 100.48 11.7392Z" fill="white"/>
        <path d="M109.828 4.79584L102.682 17.472H105.722L106.866 15.4425L115.742 15.444L116.888 17.472H119.931L112.761 4.79004L109.828 4.79584ZM108.35 12.8102L111.297 7.58232L114.254 12.8115L108.35 12.8102Z" fill="white"/>
        <path d="M129.006 12.4035H134.454L134.282 12.7642C133.64 14.1049 132.261 14.9712 130.769 14.9712H126.734C124.592 14.9712 122.849 13.242 122.849 11.1165C122.849 8.9911 124.592 7.26192 126.734 7.26192H130.769C131.871 7.26192 132.903 7.717 133.639 8.51861L135.668 6.90831C134.434 5.49413 132.663 4.68848 130.769 4.68848H126.734C125.003 4.68848 123.376 5.35708 122.152 6.57111C120.928 7.7854 120.254 9.39973 120.254 11.1168C120.254 12.8339 120.928 14.4487 122.152 15.6627C123.376 16.8768 125.003 17.5454 126.734 17.5454H130.769C132.016 17.5454 133.224 17.1955 134.263 16.5335L134.655 16.2836V17.5302H137.249L137.252 9.82982H129.006V12.4038L129.006 12.4035Z" fill="white"/>
        <path d="M157 7.26926V4.69531H140.471V17.5373H157V14.9631H143.065V12.3977H157V9.82353H143.065V7.26926H157Z" fill="white"/>
        <path d="M9.62209 4.61585H4.77454V6.88743H11.9119V6.88718H14.1531V9.29152H9.50837V11.5631H16.443V4.6156H11.9119V2.27158H18.8788V18.7284H14.2506V21H21.1687V0H9.62209V4.61585Z" fill="white"/>
        <path d="M2.28982 14.0565H4.79082V16.344H7.08065V12.9207V11.785V9.31196H4.79082V11.785H2.28982V2.27158H7.32413V0H0V12.9207V14.0565V21H11.7089V18.7284H2.28982V14.0565Z" fill="white"/>
        <path d="M11.7084 14.0889H9.40277V16.3463H11.7084V14.0889Z" fill="white"/>
        <path d="M16.5445 14.0801H14.2389V16.3375H16.5445V14.0801Z" fill="white"/>
    </g>
    <defs>
        <clipPath id="clip0_2272_1191">
            <rect width="157" height="21" fill="white"/>
        </clipPath>
    </defs>
</svg>
